<svg width="26" height="33" viewBox="0 0 26 33" fill="none" xmlns="http://www.w3.org/2000/svg">
<path d="M13.0175 32.5357C10.3586 32.5357 8.07071 31.9998 6.17444 30.8868C4.27817 29.7944 2.79412 28.2691 1.78415 26.311C0.753572 24.3529 0.238281 22.0856 0.238281 19.4886C0.238281 16.8915 0.753572 14.6036 1.78415 12.6455C2.81473 10.6874 4.27817 9.16214 6.17444 8.06973C8.07071 6.97731 10.3586 6.44141 13.0175 6.44141C15.6764 6.44141 17.9643 6.99792 19.8606 8.06973C21.7568 9.16214 23.2409 10.6874 24.2508 12.6455C25.2814 14.6036 25.7967 16.8915 25.7967 19.4886C25.7967 22.0856 25.2814 24.3529 24.2508 26.311C23.2202 28.2691 21.7568 29.7944 19.8606 30.8868C17.9437 31.9998 15.6558 32.5357 13.0175 32.5357ZM13.0587 26.4759C14.0275 26.4759 14.8519 26.1873 15.5115 25.5896C16.1711 24.9919 16.6864 24.1674 17.0574 23.1162C17.4078 22.065 17.5933 20.8489 17.5933 19.468C17.5933 18.0664 17.4078 16.8297 17.0574 15.7785C16.707 14.7273 16.1917 13.9028 15.5115 13.3051C14.8519 12.7073 14.0275 12.4188 13.0587 12.4188C12.0694 12.4188 11.2243 12.7073 10.5235 13.3051C9.84331 13.9028 9.30741 14.7273 8.95701 15.7785C8.60661 16.8297 8.4211 18.0664 8.4211 19.468C8.4211 20.8489 8.60661 22.065 8.95701 23.1162C9.30741 24.1674 9.84331 24.9919 10.5235 25.5896C11.2243 26.1667 12.0487 26.4759 13.0587 26.4759Z" fill="#45494B"/>
<path d="M12.771 16.4348C11.8229 13.5285 12.0702 10.4162 13.4512 7.67485C14.8322 4.95411 17.2231 2.91356 20.1294 1.96542L21.1187 1.65625L21.4279 2.64561C23.386 8.6642 20.0881 15.1363 14.0695 17.0944L13.0802 17.4035L12.771 16.4348Z" fill="#8BA737"/>
<path d="M20.458 2.95644C22.2306 8.43913 19.2419 14.3341 13.7592 16.1067C11.9866 10.624 14.9753 4.74965 20.458 2.95644ZM21.7771 0.359375L19.819 0.998336C16.6448 2.02892 14.0683 4.23436 12.5431 7.22305C11.0178 10.1911 10.7705 13.592 11.8011 16.7662L12.44 18.7243L14.3981 18.0854C20.9526 15.9624 24.5597 8.89259 22.4161 2.33809L21.7771 0.359375Z" fill="white"/>
</svg>
