<svg width="166" height="35" viewBox="0 0 166 35" fill="none" xmlns="http://www.w3.org/2000/svg">
<path d="M0 0.8125H10.0997L18.6535 21.6921H19.0451L27.6196 0.8125H37.7193V34.5331H29.7838V13.8184H29.4952L21.3949 34.327H16.3244L8.22404 13.7154H7.93548V34.5537C3.5452 34.5331 0 30.9879 0 26.5976V0.8125Z" fill="#45494B"/>
<path d="M47.3455 34.5347C45.7378 34.5347 44.295 34.2667 43.0583 33.7102C41.8216 33.1743 40.8323 32.3498 40.1109 31.2368C39.3895 30.1238 39.0391 28.7428 39.0391 27.0732C39.0391 25.6716 39.2864 24.4762 39.7811 23.5074C40.2758 22.5387 40.9559 21.7554 41.8216 21.1577C42.6873 20.56 43.6973 20.0859 44.8103 19.7767C45.944 19.4675 47.1394 19.2614 48.438 19.1378C49.8808 19.0141 51.035 18.8698 51.9213 18.7255C52.8076 18.5812 53.4466 18.3545 53.8382 18.0866C54.2298 17.798 54.436 17.4064 54.436 16.8911V16.8086C54.436 15.9636 54.1474 15.304 53.5703 14.8505C52.9931 14.3971 52.2099 14.1497 51.2205 14.1497C50.1487 14.1497 49.3037 14.3765 48.6441 14.8505C48.0051 15.304 47.5929 15.943 47.4074 16.7674L39.9872 16.4995C40.2139 14.9536 40.7704 13.5932 41.698 12.3771C42.6049 11.1611 43.8828 10.2129 45.4905 9.51213C47.0982 8.81134 49.0357 8.46094 51.303 8.46094C52.9107 8.46094 54.3947 8.64644 55.7757 9.03806C57.1361 9.40907 58.3315 9.96559 59.3415 10.687C60.3515 11.4084 61.1347 12.2947 61.6912 13.3253C62.2478 14.3765 62.5157 15.5513 62.5157 16.8911V34.514H54.9306V30.5566H54.7245C54.2711 31.4223 53.6939 32.1437 53.0138 32.7208C52.313 33.3186 51.4885 33.7514 50.561 34.0606C49.5922 34.3904 48.5204 34.5347 47.3455 34.5347ZM49.8396 29.2787C50.7052 29.2787 51.4885 29.0932 52.1893 28.7428C52.8901 28.3924 53.4466 27.8977 53.8588 27.2794C54.2711 26.661 54.4772 25.9396 54.4772 25.1151V22.7036C54.2504 22.8272 53.9619 22.9303 53.6527 23.0334C53.3229 23.1364 52.9725 23.2189 52.5809 23.3219C52.1893 23.4044 51.7977 23.4868 51.3854 23.5487C50.9732 23.6105 50.5816 23.6723 50.2106 23.7342C49.4479 23.8578 48.809 24.0433 48.2731 24.2907C47.7372 24.538 47.3249 24.8678 47.057 25.28C46.7684 25.6716 46.6448 26.1457 46.6448 26.7022C46.6448 27.5267 46.9539 28.1657 47.5517 28.6191C48.1494 29.052 48.912 29.2787 49.8396 29.2787Z" fill="#45494B"/>
<path d="M71.8306 20.1062V34.5343H63.7715V9.24385H71.439V13.8815H71.7276C72.2841 12.3356 73.2528 11.1195 74.5926 10.2332C75.953 9.34691 77.5607 8.91406 79.4157 8.91406C81.1883 8.91406 82.7342 9.30568 84.0533 10.1095C85.3725 10.9134 86.3824 12.0058 87.1245 13.428C87.8459 14.8502 88.2169 16.5198 88.1963 18.416V34.5343H80.1371V20.0031C80.1577 18.6015 79.7867 17.5091 79.0653 16.7053C78.3439 15.922 77.3546 15.5098 76.0766 15.5098C75.2316 15.5098 74.4895 15.6953 73.8506 16.0663C73.2116 16.4373 72.7169 16.9526 72.3665 17.6328C72.0161 18.3336 71.8512 19.158 71.8306 20.1062Z" fill="#45494B"/>
<path d="M97.5533 20.1062V34.5343H89.4941V9.24385H97.1617V13.8815H97.4502C98.0067 12.3356 98.9755 11.1195 100.315 10.2332C101.676 9.34691 103.283 8.91406 105.138 8.91406C106.911 8.91406 108.457 9.30568 109.776 10.1095C111.095 10.9134 112.105 12.0058 112.847 13.428C113.569 14.8502 113.94 16.5198 113.919 18.416V34.5343H105.86V20.0031C105.88 18.6015 105.509 17.5091 104.788 16.7053C104.067 15.922 103.077 15.5098 101.799 15.5098C100.954 15.5098 100.212 15.6953 99.5732 16.0663C98.9343 16.4373 98.4396 16.9526 98.0892 17.6328C97.7388 18.3336 97.5533 19.158 97.5533 20.1062Z" fill="#45494B"/>
<path d="M128.017 34.5357C125.359 34.5357 123.071 33.9998 121.174 32.8868C119.278 31.7944 117.794 30.2691 116.784 28.311C115.754 26.3529 115.238 24.0856 115.238 21.4886C115.238 18.8915 115.754 16.6036 116.784 14.6455C117.815 12.6874 119.278 11.1621 121.174 10.0697C123.071 8.97731 125.359 8.44141 128.017 8.44141C130.676 8.44141 132.964 8.99792 134.861 10.0697C136.757 11.1621 138.241 12.6874 139.251 14.6455C140.281 16.6036 140.797 18.8915 140.797 21.4886C140.797 24.0856 140.281 26.3529 139.251 28.311C138.22 30.2691 136.757 31.7944 134.861 32.8868C132.944 33.9998 130.656 34.5357 128.017 34.5357ZM128.059 28.4759C129.027 28.4759 129.852 28.1873 130.512 27.5896C131.171 26.9919 131.686 26.1674 132.057 25.1162C132.408 24.065 132.593 22.8489 132.593 21.468C132.593 20.0664 132.408 18.8297 132.057 17.7785C131.707 16.7273 131.192 15.9028 130.512 15.3051C129.852 14.7073 129.027 14.4188 128.059 14.4188C127.069 14.4188 126.224 14.7073 125.523 15.3051C124.843 15.9028 124.307 16.7273 123.957 17.7785C123.607 18.8297 123.421 20.0664 123.421 21.468C123.421 22.8489 123.607 24.065 123.957 25.1162C124.307 26.1674 124.843 26.9919 125.523 27.5896C126.224 28.1667 127.049 28.4759 128.059 28.4759Z" fill="#45494B"/>
<path d="M149.949 34.5347C148.341 34.5347 146.899 34.2667 145.662 33.7102C144.425 33.1743 143.436 32.3498 142.714 31.2368C141.993 30.1238 141.643 28.7428 141.643 27.0732C141.643 25.6716 141.89 24.4762 142.385 23.5074C142.879 22.5387 143.559 21.7554 144.425 21.1577C145.291 20.56 146.301 20.0859 147.414 19.7767C148.547 19.4675 149.743 19.2614 151.041 19.1378C152.484 19.0141 153.639 18.8698 154.525 18.7255C155.411 18.5812 156.05 18.3545 156.442 18.0866C156.833 17.798 157.039 17.4064 157.039 16.8911V16.8086C157.039 15.9636 156.751 15.304 156.174 14.8505C155.597 14.3971 154.813 14.1497 153.824 14.1497C152.752 14.1497 151.907 14.3765 151.248 14.8505C150.609 15.304 150.196 15.943 150.011 16.7674L142.591 16.4995C142.817 14.9536 143.374 13.5932 144.301 12.3771C145.208 11.1611 146.486 10.2129 148.094 9.51213C149.702 8.81134 151.639 8.46094 153.906 8.46094C155.514 8.46094 156.998 8.64644 158.379 9.03806C159.74 9.40907 160.935 9.96559 161.945 10.687C162.955 11.4084 163.738 12.2947 164.295 13.3253C164.851 14.3765 165.119 15.5513 165.119 16.8911V26.5167C165.119 30.7009 161.718 34.1018 157.534 34.1018V30.5772H157.328C156.875 31.4429 156.297 32.1643 155.617 32.7414C154.916 33.3392 154.092 33.772 153.164 34.0812C152.175 34.3904 151.124 34.5347 149.949 34.5347ZM152.422 29.2787C153.288 29.2787 154.071 29.0932 154.772 28.7428C155.473 28.3924 156.029 27.8977 156.442 27.2794C156.854 26.661 157.06 25.9396 157.06 25.1151V22.7036C156.833 22.8272 156.545 22.9303 156.236 23.0334C155.906 23.1364 155.555 23.2189 155.164 23.3219C154.772 23.4044 154.381 23.4868 153.968 23.5487C153.556 23.6105 153.164 23.6723 152.793 23.7342C152.031 23.8578 151.392 24.0433 150.856 24.2907C150.32 24.538 149.908 24.8678 149.64 25.28C149.351 25.6716 149.228 26.1457 149.228 26.7022C149.228 27.5267 149.537 28.1657 150.135 28.6191C150.753 29.052 151.516 29.2787 152.422 29.2787Z" fill="#45494B"/>
<path d="M127.771 18.4348C126.823 15.5285 127.07 12.4162 128.451 9.67485C129.832 6.95411 132.223 4.91356 135.129 3.96542L136.119 3.65625L136.428 4.64561C138.386 10.6642 135.088 17.1363 129.07 19.0944L128.08 19.4035L127.771 18.4348Z" fill="#8BA737"/>
<path d="M135.458 4.95644C137.231 10.4391 134.242 16.3341 128.759 18.1067C126.987 12.624 129.975 6.74965 135.458 4.95644ZM136.777 2.35938L134.819 2.99834C131.645 4.02892 129.068 6.23436 127.543 9.22305C126.018 12.1911 125.77 15.592 126.801 18.7662L127.44 20.7243L129.398 20.0854C135.953 17.9624 139.56 10.8926 137.416 4.33809L136.777 2.35938Z" fill="white"/>
</svg>
