<svg width="197" height="49" viewBox="0 0 197 49" fill="none" xmlns="http://www.w3.org/2000/svg">
<path d="M40.7742 26.5612C40.3586 27.3923 39.654 28.2053 38.6965 29.0363C37.7208 29.8674 36.691 30.6082 35.5889 31.2947C34.4869 31.9813 33.5112 32.5052 32.6982 32.9027C32.644 32.9207 32.5898 32.9388 32.5537 32.975C32.4272 33.0292 32.3369 33.0834 32.2646 33.1376C32.1923 33.1918 32.1201 33.2821 32.0659 33.4266C31.9755 33.6796 31.8671 33.9144 31.7587 34.1312C31.7407 34.2035 31.7045 34.2577 31.6865 34.3119L31.3071 35.1791C30.4037 37.0942 29.2474 38.8648 27.8563 40.4908C26.2844 42.2614 24.4958 43.5441 22.5084 44.3571C20.5211 45.1702 18.4976 45.387 16.4379 45.0256C14.3783 44.6643 12.4632 43.5983 10.6926 41.8639C9.24729 40.3643 8.18134 38.7383 7.51286 37.022C6.84438 35.2875 6.37464 33.4266 6.08557 31.4393C6.0675 31.4031 6.0675 31.3309 6.0675 31.2586C6.04943 31.1502 6.03137 31.0418 6.0133 30.9153C5.99523 30.7888 5.97716 30.6985 5.9591 30.6443C5.92296 30.572 5.83263 30.4636 5.68809 30.3552C5.56162 30.2288 5.43516 30.1384 5.34482 30.0662L5.30869 30.03C4.3692 29.2531 3.55619 28.3679 2.86965 27.338C2.20117 26.3444 1.65916 25.2784 1.24362 24.1402C0.647407 22.46 0.376402 20.7255 0.430603 18.9369C0.593206 16.3353 1.47849 13.9685 3.06838 11.8366C4.65828 9.70469 6.59144 8.04252 8.84981 6.8501C10.9456 5.74801 13.2401 4.9892 15.7514 4.57366C18.2627 4.15812 20.7198 4.19426 23.1589 4.664C25.5979 5.15181 27.7659 6.18163 29.6449 7.77152C31.1445 9.12654 32.2646 10.7887 33.0234 12.7038C33.7822 14.637 34.2159 16.6966 34.3604 18.8827C34.5049 21.0688 34.4327 23.2368 34.1436 25.3687C33.8545 27.5007 33.4209 29.47 32.8428 31.2405C32.8066 31.3309 32.8066 31.4031 32.8247 31.4212C32.8428 31.4393 32.8789 31.4573 32.9331 31.4212C32.9873 31.4031 33.0415 31.3851 33.1138 31.3489C33.1318 31.3309 33.168 31.3128 33.186 31.2947L33.2583 31.2586C34.6495 30.6624 35.8599 29.9758 36.9259 29.217C37.9738 28.4582 39.0217 27.5368 40.0695 26.4889C40.2322 26.3263 40.4128 26.1998 40.5574 26.1276C40.72 26.0553 40.8284 26.0372 40.8826 26.0914C40.9368 26.1095 40.9006 26.2721 40.7742 26.5612ZM29.0306 32.5955C29.3197 32.5233 29.6088 32.451 29.9159 32.3787C30.0062 32.3607 30.1146 32.3426 30.223 32.3065C30.4037 32.2523 30.5302 32.18 30.6025 32.0897C30.6747 31.9993 30.7289 31.8729 30.7831 31.7283C30.8012 31.6922 30.8193 31.638 30.8554 31.5838C31.1987 30.6262 31.4877 29.6326 31.7407 28.6389C31.7407 28.6208 31.7407 28.5847 31.7587 28.5666C32.2104 26.7238 32.5176 24.7183 32.6621 22.4961C32.8066 20.2919 32.6982 18.1239 32.3008 15.992C31.9033 13.8601 31.1264 12.0173 29.952 10.4454C28.6151 8.74713 26.9529 7.51858 24.9836 6.77784C23.0143 6.03709 20.9547 5.69382 18.8047 5.78415C16.6547 5.85642 14.6132 6.30809 12.7161 7.10304C10.1687 8.16899 8.01873 9.74081 6.30237 11.8185C4.56794 13.8962 3.53812 16.3353 3.15872 19.0995C3.05032 19.9848 3.05031 20.8881 3.14065 21.7915C3.46586 23.815 4.1524 25.5675 5.20029 27.049C5.21835 27.067 5.23642 27.1032 5.27255 27.1393C5.34482 27.2658 5.41709 27.3561 5.50742 27.4645C5.57969 27.5549 5.65196 27.591 5.72423 27.5729C5.77843 27.5549 5.81456 27.4284 5.83263 27.1935C5.83263 26.778 5.8507 26.3624 5.88683 25.9469C5.97717 24.4654 6.21204 23.002 6.57338 21.6108C6.95278 20.2016 7.53092 18.8285 8.32587 17.4554C8.95822 16.3895 9.7893 15.3235 10.8191 14.2937C11.8489 13.2639 12.9872 12.3967 14.2518 11.7101C15.4985 11.0236 16.7993 10.6261 18.1362 10.5538C18.5156 10.5358 18.7686 10.5538 18.877 10.59C18.9854 10.6261 19.0035 10.6803 18.9131 10.7526C18.8409 10.8248 18.7144 10.8971 18.5337 10.9874C18.353 11.0778 18.1904 11.15 18.0098 11.2223C17.9736 11.2404 17.9375 11.2584 17.9014 11.2765C15.4443 12.3967 13.5472 13.8601 12.1922 15.6668C10.8372 17.4735 9.91577 19.5151 9.40989 21.7734C8.90402 24.0318 8.68721 26.3805 8.74141 28.8195V28.9099C8.72335 29.47 8.79561 29.9036 8.90402 30.2288C9.03048 30.554 9.35569 30.843 9.91577 31.1321C12.4993 32.4149 15.2094 33.2098 18.0278 33.517C20.8463 33.8422 23.6828 33.7157 26.5013 33.1737C27.3323 32.993 28.1815 32.7943 29.0306 32.5955ZM27.8743 34.5468C25.074 35.1972 22.382 35.4862 19.7984 35.3778C17.2148 35.2875 14.577 34.7455 11.867 33.788C11.5599 33.6615 11.2527 33.535 10.9637 33.4086C10.5842 33.2279 10.1868 33.0653 9.7893 32.9207C9.64476 32.8665 9.53636 32.8485 9.44602 32.8485C9.35569 32.8665 9.30149 32.9388 9.28342 33.1014C9.26536 33.517 9.35569 34.059 9.55443 34.7094C9.75316 35.3779 9.91577 35.9199 10.0603 36.3354C10.4758 37.564 11.0179 38.7022 11.6863 39.7501C12.3548 40.798 13.204 41.6471 14.2338 42.3156C15.2455 42.984 16.4921 43.3273 17.9375 43.3815C19.7803 43.4177 21.4064 43.0382 22.8517 42.2252C24.2971 41.4303 25.5437 40.3824 26.6277 39.0635C27.6937 37.7627 28.6151 36.3715 29.3378 34.872C29.392 34.7636 29.4462 34.6552 29.5004 34.5106C29.5365 34.4203 29.5726 34.33 29.6088 34.2577C29.6449 34.1674 29.663 34.0951 29.6449 34.059C29.6268 34.0228 29.5907 34.0228 29.5365 34.0228C29.4823 34.0409 29.4281 34.0409 29.3558 34.077C29.3197 34.0951 29.3016 34.0951 29.2836 34.1132C28.8319 34.3119 28.3622 34.4384 27.8743 34.5468Z" fill="#4A563F"/>
<path d="M38.4983 24.086C38.5164 23.4175 38.5525 22.4961 38.6428 21.3579C38.7332 20.2196 38.8958 19.0272 39.1487 17.8167C39.3836 16.6062 39.7449 15.5403 40.2327 14.655C40.7025 13.7517 41.3529 13.2097 42.1659 13.029C42.8705 12.9386 43.3764 13.1374 43.6835 13.6252C43.9907 14.113 44.1352 14.6731 44.1352 15.3054C44.1171 16.6424 43.8281 18.0516 43.2499 19.5692C42.6898 21.0869 42.1117 22.4419 41.5155 23.6343C41.3167 24.0679 41.0999 24.4834 40.9012 24.8809C40.8831 25.441 40.8651 26.1998 40.8831 27.1574C40.8831 28.1149 40.9554 29.0363 41.0819 29.9397C41.2083 30.843 41.4251 31.5115 41.7504 31.927C42.2382 32.469 42.7982 32.6678 43.4306 32.5233C44.0449 32.3787 44.623 32.1077 45.165 31.7283C45.9419 31.1863 46.7368 30.4998 47.5137 29.6325C48.2906 28.7834 48.9591 27.9523 49.5011 27.1935C49.6637 26.9406 49.8082 26.7418 49.9166 26.5792C50.0612 26.3624 50.1696 26.2179 50.2599 26.1095C50.3502 26.0191 50.4225 25.9649 50.4948 25.9469C50.567 25.9288 50.6032 25.9649 50.6212 26.0372C50.6574 26.1637 50.4948 26.5431 50.1334 27.2116C49.6637 28.0426 48.9771 29.0183 48.0738 30.1384C47.1705 31.2586 46.1768 32.1981 45.0747 32.9749C43.9726 33.7518 42.9066 34.059 41.8588 33.8602C41.0999 33.6615 40.5037 33.2459 40.0521 32.6136C39.492 31.8367 39.0945 30.8972 38.8596 29.8313C38.6248 28.7653 38.4802 27.7355 38.4622 26.778C38.4441 25.8927 38.4622 24.9893 38.4983 24.086ZM41.0096 23.1284C41.2987 22.5322 41.5697 21.8457 41.8407 21.0688C42.1117 20.2919 42.3285 19.5873 42.5092 18.9369C42.5995 18.6298 42.726 18.16 42.8705 17.4915C43.015 16.8231 43.1234 16.1726 43.1596 15.5403C43.2138 14.908 43.1234 14.4924 42.8886 14.2756C42.744 14.1853 42.6176 14.1853 42.4911 14.2575C42.3646 14.3298 42.2562 14.4201 42.1659 14.5466C42.0756 14.6731 42.0033 14.7996 41.9672 14.908C41.8226 15.3235 41.7142 15.8294 41.6058 16.4436C41.4974 17.0579 41.4252 17.5819 41.371 18.0155C41.1541 19.7318 41.0096 21.4482 40.9373 23.1646L41.0096 23.1284Z" fill="#4A563F"/>
<path d="M49.2996 17.2585C49.8416 17.132 50.2391 17.2223 50.5101 17.5295C50.8173 17.8547 50.9437 18.2702 50.8895 18.7761C50.8534 19.029 50.745 19.282 50.6005 19.5168C50.4379 19.7517 50.2572 19.9324 50.0223 20.0769C49.5164 20.3298 49.0106 20.2937 48.4866 19.9504C48.2518 19.7698 48.0711 19.5349 47.9446 19.2458C47.8181 18.9568 47.8001 18.6677 47.8723 18.3967C47.9807 18.1257 48.1795 17.8727 48.4505 17.674C48.7215 17.4753 49.0106 17.3307 49.2996 17.2585ZM50.1127 25.226C50.4921 25.497 50.6908 25.9667 50.6727 26.6171C50.6547 27.3218 50.6366 28.0444 50.5824 28.7852C50.5643 29.0923 50.5463 29.3814 50.5101 29.6524V29.7247C50.474 30.1402 50.474 30.5377 50.474 30.9171C50.4921 31.2965 50.5643 31.6398 50.6908 31.9108C51.016 32.3986 51.4677 32.5973 52.0458 32.4889C52.624 32.3805 53.2202 32.1456 53.7983 31.7843C54.3765 31.423 54.8101 31.0978 55.1172 30.8267C55.7857 30.2305 56.4 29.6163 56.96 28.9478C57.5201 28.2793 57.9718 27.7012 58.3512 27.1772C58.5138 26.9243 58.6583 26.7256 58.7667 26.5629C58.8932 26.3461 59.0016 26.2016 59.11 26.0932C59.2003 26.0029 59.2726 25.9487 59.3268 25.9306C59.3991 25.9125 59.4352 25.9487 59.4352 26.0209C59.4894 26.1474 59.3268 26.5268 58.9474 27.1953C58.0441 28.7671 56.942 30.2125 55.6411 31.4952C54.9727 32.1998 54.1416 32.8141 53.1479 33.3381C52.1723 33.862 51.1786 34.0246 50.1849 33.7897C49.5345 33.591 49.0467 33.1935 48.7215 32.5973C48.3963 32.0011 48.1614 31.3326 48.053 30.5738C47.9265 29.815 47.8723 29.0742 47.8543 28.3335C47.8362 26.9965 48.0711 26.0571 48.5228 25.4789C48.7576 25.226 49.0286 25.0815 49.3177 25.0453C49.6248 25.0453 49.8958 25.0995 50.1127 25.226Z" fill="#4A563F"/>
<path d="M61.0641 32.1614C61.8771 30.5715 62.4733 28.8913 62.8708 27.1569C62.8889 27.1026 62.907 27.0665 62.925 27.0304C62.9431 26.9401 62.9612 26.8678 62.9612 26.8136C62.9612 26.7594 62.925 26.6871 62.8708 26.5968C62.7444 26.4522 62.654 26.3077 62.5817 26.1632C62.5095 26.0186 62.4733 25.856 62.4553 25.6573C62.4011 25.2598 62.4733 24.9346 62.654 24.6997C62.8347 24.4468 63.0515 24.3023 63.3044 24.2481C63.5574 24.1939 63.7561 24.2661 63.9187 24.4468L63.991 24.5371C64.0813 24.7359 64.1355 25.0069 64.1174 25.3502C64.0994 25.6934 64.0632 26.0367 64.009 26.38C64.4788 26.8678 64.9847 27.193 65.5267 27.3375C66.0867 27.4821 66.5926 27.5182 67.0624 27.4821C67.8392 27.3917 68.4535 27.2291 68.9052 26.9762C69.1581 26.8497 69.4111 26.7052 69.664 26.5245C69.8627 26.398 70.0795 26.2535 70.3325 26.109C70.477 26.0367 70.5493 26.0367 70.5674 26.0909C70.6035 26.1632 70.5132 26.3258 70.3325 26.5787C70.2602 26.6691 70.1699 26.7594 70.0976 26.8317L70.0073 26.9039C69.1581 27.6627 68.1102 28.0964 66.8636 28.1686C65.7435 28.2048 64.7317 27.9518 63.8284 27.3556C63.5574 28.3854 63.2141 29.4152 62.7986 30.4631C62.4011 31.511 61.9133 32.4866 61.3713 33.39C61.028 33.9681 60.6486 34.3475 60.233 34.5101C59.8175 34.6727 59.3478 34.492 58.8419 33.9139C58.2818 33.137 57.8121 32.2156 57.4507 31.1677C57.0894 30.1198 56.8726 29.1262 56.8184 28.1686C56.7642 27.5363 56.8365 26.9039 57.0171 26.2896C57.2339 25.7296 57.5411 25.3682 57.9385 25.1876C58.336 25.0069 58.6973 25.025 59.0406 25.2598C59.3839 25.4947 59.5646 25.9644 59.6188 26.6691C59.6188 26.9943 59.6007 27.3375 59.5826 27.6627C59.5465 28.3854 59.5646 29.1984 59.6368 30.1379C59.7091 31.0774 59.8536 31.8723 60.0885 32.5228C60.0885 32.5408 60.0885 32.5408 60.1066 32.5589C60.1427 32.6673 60.1788 32.7576 60.233 32.8479C60.3414 32.9925 60.4498 33.0286 60.5582 32.9564C60.6666 32.8841 60.7751 32.7757 60.8654 32.6131C60.9557 32.4505 61.028 32.324 61.0822 32.2156L61.0641 32.1614Z" fill="#4A563F"/>
<path d="M69.1571 17.2585C69.6991 17.132 70.0965 17.2223 70.3675 17.5295C70.6747 17.8547 70.8012 18.2702 70.747 18.7761C70.7108 19.029 70.6024 19.282 70.4579 19.5168C70.2953 19.7517 70.1146 19.9324 69.8797 20.0769C69.3739 20.3298 68.868 20.2937 68.344 19.9504C68.1092 19.7698 67.9285 19.5349 67.802 19.2458C67.6756 18.9568 67.6575 18.6677 67.7298 18.3967C67.8382 18.1257 68.0369 17.8727 68.3079 17.674C68.5789 17.4753 68.868 17.3307 69.1571 17.2585ZM69.9701 25.226C70.3495 25.497 70.5482 25.9667 70.5302 26.6171C70.5121 27.3218 70.494 28.0444 70.4398 28.7852C70.4217 29.0923 70.4037 29.3814 70.3675 29.6524V29.7247C70.3314 30.1402 70.3314 30.5377 70.3314 30.9171C70.3495 31.2965 70.4217 31.6398 70.5482 31.9108C70.8734 32.3986 71.3251 32.5973 71.9032 32.4889C72.4814 32.3805 73.0776 32.1456 73.6557 31.7843C74.2339 31.423 74.6675 31.0978 74.9746 30.8267C75.6431 30.2305 76.2574 29.6163 76.8175 28.9478C77.3775 28.2793 77.8292 27.7012 78.2086 27.1772C78.3712 26.9243 78.5158 26.7256 78.6242 26.5629C78.7506 26.3461 78.859 26.2016 78.9674 26.0932C79.0578 26.0029 79.13 25.9487 79.1842 25.9306C79.2565 25.9125 79.2926 25.9487 79.2926 26.0209C79.3468 26.1474 79.1842 26.5268 78.8048 27.1953C77.9015 28.7671 76.7994 30.2125 75.4986 31.4952C74.8301 32.1998 73.999 32.8141 73.0053 33.3381C72.0116 33.862 71.036 34.0246 70.0423 33.7897C69.3919 33.591 68.9041 33.1935 68.5789 32.5973C68.2537 32.0011 68.0188 31.3326 67.9104 30.5738C67.784 29.815 67.7298 29.0742 67.7117 28.3335C67.6936 26.9965 67.9285 26.0571 68.3802 25.4789C68.6151 25.226 68.8861 25.0815 69.1751 25.0453C69.4823 25.0453 69.7533 25.0995 69.9701 25.226Z" fill="#4A563F"/>
<path d="M74.939 29.0605C75.3184 28.1211 75.9146 27.2358 76.6915 26.4047C77.4684 25.5736 78.3898 25.0677 79.4196 24.8871C79.9074 24.8148 80.4133 24.8871 80.9372 25.0677C81.4431 25.2484 81.8406 25.5556 82.1297 25.9892C82.1839 26.0614 82.22 26.1518 82.2561 26.224C82.2923 26.3144 82.2923 26.3866 82.2561 26.4408C82.2381 26.495 82.1477 26.5131 82.0213 26.477H82.0032C81.8045 26.4228 81.5877 26.4047 81.3889 26.4047C80.7746 26.5131 80.1062 26.9286 79.3474 27.6513C78.6066 28.374 78.0646 29.0063 77.7213 29.5484C77.6491 29.6568 77.5768 29.8194 77.4865 30.0181C77.3961 30.2349 77.3419 30.4336 77.3419 30.6324C77.3239 30.8311 77.3961 30.9757 77.5407 31.066C77.902 31.1744 78.2995 31.0118 78.7331 30.6143C79.1667 30.1988 79.6184 29.7109 80.052 29.1509C80.6482 28.374 81.1902 27.8501 81.6419 27.5791C81.949 27.4526 82.2019 27.4526 82.3826 27.5791C82.5633 27.7055 82.7078 27.9042 82.8162 28.1572C82.9065 28.4101 82.9788 28.6631 83.033 28.898C83.1053 29.2051 83.2137 29.5303 83.3763 29.8555C83.5389 30.1807 83.7918 30.3975 84.117 30.4878C84.641 30.5782 85.2191 30.4336 85.8334 30.0904C86.4477 29.729 87.0258 29.2954 87.5678 28.7895C88.1098 28.2837 88.5434 27.832 88.8686 27.4345C89.1758 27.0732 89.3745 26.7841 89.5191 26.5854C89.6636 26.3324 89.8081 26.1698 89.9527 26.0795C90.0972 25.9892 90.1875 25.9711 90.2237 26.0072C90.2417 26.0434 90.2417 26.1698 90.2237 26.3505C90.1333 26.7118 89.8443 27.2539 89.3203 27.9946C88.959 28.5185 88.5615 29.0244 88.164 29.5122C87.6401 30.1626 87.062 30.7227 86.4477 31.2105C85.8334 31.6983 85.1107 32.0416 84.2616 32.2223C82.9065 32.5113 81.8225 32.0777 81.0276 30.9214C80.9372 30.795 80.865 30.6685 80.8108 30.5601C80.7204 30.3794 80.6301 30.271 80.5398 30.2349C80.4494 30.1988 80.323 30.2891 80.1604 30.524C80.07 30.6324 79.9978 30.7408 79.9436 30.8311C79.7448 31.084 79.5642 31.3009 79.3835 31.5177C79.2028 31.7345 78.9679 31.9513 78.715 32.1681C78.2272 32.5836 77.6129 32.8907 76.9083 33.0714C76.2037 33.2521 75.5894 33.0895 75.0655 32.5655C74.6861 32.0777 74.5235 31.5177 74.5596 30.8853C74.5957 30.1807 74.7222 29.5845 74.939 29.0605Z" fill="#4A563F"/>
<path d="M101.822 26.6511C101.226 27.6629 100.485 28.5843 99.5638 29.4154C98.5159 30.3729 97.3054 31.2221 95.9323 31.9809C96.1672 32.5048 96.3298 33.0469 96.4382 33.6069C96.5827 34.6006 96.4743 35.5401 96.113 36.4434C95.7517 37.3468 95.1374 38.0875 94.3244 38.6838C93.7462 39.0812 93.0958 39.3161 92.4093 39.4064C91.7046 39.4968 91.0904 39.3703 90.5664 39.0451C90.0425 38.7199 89.7534 38.1417 89.6992 37.3107C89.7173 36.1363 90.1328 35.1426 90.9097 34.2935C91.7047 33.4624 92.5719 32.7759 93.5294 32.2338C93.2403 31.9809 92.9332 31.746 92.5899 31.5292C92.3189 31.3305 92.0118 31.1137 91.7047 30.8607C90.8194 30.0839 90.3858 29.1986 90.3858 28.2049C90.3858 27.2112 90.7652 26.3801 91.5059 25.7117C91.6685 25.5671 91.8853 25.4587 92.1563 25.3865C92.4093 25.3142 92.6441 25.3503 92.8248 25.531C92.9513 25.7117 92.9874 25.8923 92.9513 26.1091C92.9151 26.3259 92.8248 26.5427 92.7164 26.7415C92.5899 26.9402 92.4815 27.1028 92.3731 27.2293C92.3551 27.2473 92.3551 27.2474 92.3551 27.2654C92.2647 27.3558 92.1925 27.4642 92.1383 27.5545C92.0841 27.6629 92.0841 27.7713 92.1383 27.9158C92.2828 28.1688 92.4093 28.3675 92.5357 28.512C92.6622 28.6566 92.8429 28.8192 93.0597 28.9999C93.1139 29.036 93.1681 29.0721 93.2223 29.1083C94.0714 29.6864 94.8122 30.3549 95.4626 31.1317C96.2033 30.7523 96.926 30.3368 97.6306 29.8671C98.6966 29.1444 99.5638 28.4217 100.25 27.7352C100.756 27.2112 101.154 26.7595 101.443 26.3621C101.479 26.3259 101.515 26.2717 101.551 26.2175C101.587 26.1633 101.623 26.1272 101.678 26.073C101.768 25.9827 101.84 25.9285 101.894 25.9104C101.967 25.8923 102.003 25.9285 102.039 26.0007C102.057 26.1091 101.985 26.3259 101.822 26.6511ZM94.1979 32.9927C93.674 33.2998 93.1681 33.625 92.6622 34.0225C92.1744 34.4019 91.7408 34.8355 91.3794 35.3233C90.729 36.2808 90.4942 37.0577 90.6929 37.6359C90.8916 38.2321 91.3072 38.5573 91.9395 38.6476C92.5719 38.7199 93.2223 38.5031 93.8908 37.943C94.5954 37.2384 94.9386 36.4434 94.9386 35.5582C94.9206 34.6367 94.6676 33.7876 94.1979 32.9927Z" fill="#4A563F"/>
<path d="M109.501 20.4207C109.429 20.5652 109.393 21.035 109.356 21.8299C109.32 22.6249 109.302 23.5102 109.302 24.5038C109.302 25.4975 109.302 26.3647 109.302 27.1416V28.2256C109.302 28.6592 109.302 29.3819 109.32 30.3756C109.338 31.6945 109.356 33.2663 109.356 35.073C109.356 36.8797 109.32 38.6864 109.266 40.475C109.212 42.2637 109.085 43.7813 108.905 45.0279C108.724 46.2745 108.471 46.9792 108.146 47.1598C107.803 47.214 107.55 46.9611 107.387 46.401C107.225 45.8409 107.116 45.2267 107.062 44.5582C107.008 43.8897 106.99 43.438 106.99 43.167V43.1309C106.953 40.0234 106.972 36.9158 107.062 33.8083C107.152 30.4117 107.17 26.9971 107.116 23.5644C107.062 22.4623 107.008 21.3602 106.935 20.2581C106.845 19.0837 106.791 17.8913 106.737 16.717C106.737 16.6628 106.737 16.5905 106.719 16.5182C106.701 15.9762 106.701 15.3258 106.719 14.6031C106.737 13.8624 106.863 13.1939 107.08 12.5616C107.297 11.9473 107.676 11.5137 108.2 11.2788C108.706 11.1885 109.067 11.2788 109.284 11.5679C109.483 11.857 109.609 12.2364 109.645 12.67C109.79 13.8805 110.025 15.0909 110.314 16.2653C110.477 16.8796 110.639 17.5119 110.784 18.1443C110.928 18.7405 111.091 19.3547 111.235 19.9871C111.832 22.4803 112.482 25.082 113.205 27.792C113.927 30.5021 114.758 33.1579 115.698 35.7415C116.637 38.3251 117.721 40.6557 118.95 42.7334L119.058 42.9322C120.269 44.9015 121.353 46.1481 122.31 46.672C123.268 47.1959 124.117 47.196 124.876 46.6539C125.635 46.1119 126.285 45.1905 126.845 43.9258C127.405 42.6431 127.893 41.1796 128.291 39.5356C128.923 36.9881 129.393 34.0793 129.682 30.8092C129.971 27.521 130.043 24.1425 129.899 20.6736C129.754 17.1867 129.32 13.8805 128.616 10.7187C127.911 7.55701 126.881 4.84696 125.526 2.57052C125.472 2.49825 125.4 2.38986 125.31 2.26339C125.093 1.95625 124.858 1.59491 124.641 1.19744C124.424 0.799962 124.316 0.474759 124.352 0.239888C124.388 0.00501733 124.677 -0.0491814 125.237 0.0953544C126.61 0.583163 127.712 1.54071 128.525 2.94993C129.338 4.35916 129.971 6.03938 130.368 7.93642C130.784 9.83345 131.073 11.7124 131.236 13.5914C131.398 15.4703 131.507 17.1144 131.543 18.4875C131.561 18.7405 131.561 18.9934 131.579 19.2102C131.669 21.1434 131.705 23.0946 131.651 25.0458C131.615 26.979 131.488 29.147 131.254 31.5861C131.019 34.0071 130.639 36.3919 130.152 38.7587C129.646 41.1074 128.977 43.167 128.146 44.9015C127.676 45.8771 127.134 46.7082 126.484 47.4128C125.833 48.1174 125.093 48.5329 124.244 48.6955C123.394 48.8581 122.437 48.6052 121.371 47.9548C119.962 46.9792 118.643 45.4796 117.45 43.4561C116.258 41.4326 115.174 39.1742 114.234 36.681C113.277 34.1877 112.482 31.7487 111.814 29.3819C111.145 27.0151 110.621 24.9916 110.26 23.3295C110.242 23.2933 110.224 23.1849 110.187 23.0223C110.151 22.8055 110.097 22.5526 110.043 22.2635C109.989 21.9745 109.916 21.6854 109.862 21.3963C109.79 21.1072 109.736 20.8724 109.682 20.6917C109.591 20.4749 109.537 20.3846 109.501 20.4207Z" fill="#4A563F"/>
<path d="M155.462 22.4565C155.389 22.5649 155.209 22.5649 154.92 22.4746C154.847 22.4565 154.757 22.4384 154.685 22.4023C154.468 22.312 154.143 22.2397 153.727 22.1674C152.625 21.9868 151.451 21.9326 150.186 21.9868C149.933 22.0048 149.662 22.0048 149.391 22.041C149.012 22.059 148.632 22.0771 148.253 22.0952C147.982 22.0952 147.801 22.1494 147.729 22.2578C147.639 22.3662 147.602 22.5649 147.62 22.8359C147.602 23.4863 147.584 24.1187 147.566 24.7691L147.548 26.2686V26.7203C147.548 26.9371 147.548 27.1539 147.548 27.3707C147.53 28.3102 147.53 29.2858 147.512 30.2976C147.44 34.6698 147.422 38.8794 147.44 42.9083C147.44 42.9445 147.44 43.0348 147.458 43.1432C147.476 43.3961 147.476 43.7575 147.494 44.2272C147.512 44.6789 147.494 45.1486 147.476 45.6364C147.458 46.1062 147.404 46.5037 147.313 46.7927C147.223 47.0818 147.078 47.1902 146.88 47.0999C146.573 46.9011 146.338 46.4495 146.139 45.7448C145.958 45.0402 145.814 44.2995 145.723 43.5226C145.633 42.7457 145.579 42.1857 145.561 41.8243C145.489 40.5777 145.434 39.1685 145.434 37.6328C145.416 36.0971 145.434 34.7059 145.452 33.4593C145.471 32.6824 145.489 31.9055 145.507 31.1287C145.525 30.7673 145.525 30.3879 145.525 30.0266C145.145 30.4421 144.73 30.8215 144.296 31.1648C143.682 31.6526 142.959 31.9959 142.11 32.1765C140.755 32.4656 139.671 32.032 138.876 30.8757C138.786 30.7493 138.713 30.6228 138.659 30.5144C138.569 30.3337 138.479 30.2253 138.388 30.1892C138.298 30.153 138.171 30.2434 138.009 30.4782C137.919 30.5866 137.846 30.6951 137.792 30.7854C137.593 31.0383 137.413 31.2551 137.232 31.4719C137.051 31.6887 136.834 31.9055 136.563 32.1223C136.076 32.5379 135.461 32.845 134.757 33.0257C134.052 33.2064 133.438 33.0438 132.914 32.5198C132.535 32.032 132.372 31.4719 132.39 30.8396C132.426 30.2072 132.553 29.611 132.769 29.069C133.149 28.1295 133.745 27.2443 134.522 26.4132C135.299 25.5821 136.22 25.0762 137.25 24.8956C137.738 24.8233 138.244 24.8956 138.768 25.0762C139.292 25.2569 139.689 25.564 139.96 25.9976C140.014 26.0699 140.05 26.1602 140.087 26.2325C140.123 26.3228 140.123 26.3951 140.105 26.4493C140.068 26.5035 139.996 26.5216 139.87 26.4854H139.816C139.617 26.4312 139.4 26.4132 139.201 26.4132C138.587 26.5216 137.919 26.9371 137.16 27.6598C136.419 28.3825 135.877 29.0148 135.534 29.5568C135.461 29.6652 135.389 29.8278 135.299 30.0266C135.208 30.2434 135.154 30.4421 135.154 30.6409C135.136 30.8396 135.208 30.9841 135.353 31.0745C135.714 31.1829 136.112 31.0383 136.545 30.6228C136.979 30.2072 137.413 29.7194 137.864 29.1413C138.461 28.3644 139.003 27.8405 139.454 27.5695C139.761 27.443 140.014 27.443 140.195 27.5875C140.376 27.714 140.52 27.9127 140.629 28.1657C140.719 28.4186 140.791 28.6716 140.845 28.9064C140.918 29.2136 141.026 29.5388 141.189 29.864C141.351 30.1892 141.604 30.406 141.929 30.4963C142.453 30.5866 143.031 30.4421 143.646 30.0988C144.26 29.7375 144.838 29.3039 145.38 28.798C145.416 28.7619 145.452 28.7257 145.489 28.6896C145.507 26.8106 145.507 24.9136 145.471 23.0166V22.9262C145.489 22.8359 145.489 22.7275 145.471 22.6191C145.452 22.5107 145.416 22.4204 145.344 22.3842C145.29 22.3662 145.145 22.3662 144.892 22.3662C144.639 22.3842 144.386 22.3842 144.097 22.4204C143.808 22.4384 143.592 22.4565 143.411 22.4926C143.357 22.4926 143.302 22.4926 143.266 22.5107C143.194 22.5107 143.104 22.5107 143.031 22.5288C142.652 22.5649 142.273 22.583 141.911 22.583C141.532 22.583 141.225 22.4926 140.954 22.2939C140.773 22.1494 140.665 21.9687 140.647 21.77C140.61 21.5532 140.737 21.4086 140.99 21.3183C141.134 21.2822 141.333 21.3002 141.622 21.3906L141.713 21.4267C141.984 21.517 142.435 21.5893 143.068 21.6435C143.537 21.6616 144.007 21.6435 144.477 21.6074H144.694C144.91 21.6074 145.091 21.5712 145.2 21.517C145.326 21.4448 145.38 21.2822 145.362 20.9931C145.272 20.0355 145.2 18.9515 145.145 17.741C145.091 16.5486 145.055 15.5007 145.055 14.6154C145.055 13.2965 145.272 12.3571 145.705 11.7789C145.94 11.526 146.211 11.3814 146.5 11.3272C146.789 11.2911 147.06 11.3453 147.277 11.4899C147.657 11.7609 147.855 12.2306 147.837 12.8629C147.837 13.1339 147.819 13.5314 147.783 14.0373C147.747 14.5612 147.711 15.4646 147.657 16.7654C147.639 17.3616 147.62 17.9759 147.602 18.6082C147.584 19.2587 147.584 19.891 147.548 20.5233C147.53 20.5956 147.53 20.6679 147.53 20.7943C147.53 20.9027 147.548 21.0111 147.584 21.1196C147.602 21.228 147.657 21.2822 147.729 21.3002C147.765 21.3183 147.891 21.3183 148.108 21.3002C148.325 21.2822 148.56 21.2641 148.849 21.228C149.12 21.1918 149.373 21.1738 149.608 21.1557C149.789 21.1376 149.933 21.1196 150.005 21.1015C151.234 20.9931 152.228 20.9389 152.95 20.957C153.637 20.975 154.161 21.0834 154.486 21.2641C154.865 21.4448 155.118 21.6616 155.281 21.9145C155.353 22.041 155.407 22.1674 155.425 22.2758C155.516 22.2939 155.498 22.3842 155.462 22.4565Z" fill="#4A563F"/>
<path d="M165.129 26.2521C165.057 26.3244 165.002 26.4147 164.93 26.5231C164.822 26.7219 164.623 26.9748 164.37 27.3L164.298 27.3904C163.882 27.9143 163.286 28.5105 162.527 29.179C161.768 29.8475 160.992 30.263 160.215 30.4437C159.781 30.5521 159.42 30.4617 159.113 30.1727C158.842 29.8475 158.679 29.4319 158.607 28.908C158.534 28.4021 158.516 27.8601 158.516 27.3C158.534 26.7399 158.498 26.2341 158.444 25.7824C158.263 25.0597 157.92 24.7164 157.414 24.7526C156.908 24.7887 156.511 25.1139 156.222 25.6921C156.023 26.1618 155.842 26.6857 155.68 27.2458C155.517 27.7878 155.337 28.3298 155.138 28.8357C154.867 29.4861 154.542 30.0823 154.18 30.6424C153.819 31.1844 153.44 31.5096 153.042 31.5819C152.843 31.6 152.681 31.4916 152.572 31.2748C152.464 31.058 152.392 30.805 152.356 30.534C152.319 30.263 152.319 30.0462 152.319 29.8836C152.337 29.4139 152.356 28.926 152.392 28.4202C152.464 27.7698 152.482 27.1555 152.482 26.5954C152.5 25.945 152.301 25.4753 151.922 25.1862C151.705 25.0416 151.434 25.0055 151.145 25.0236C150.856 25.0597 150.585 25.2043 150.35 25.4753C149.917 26.2521 149.682 27.282 149.682 28.5647C149.682 29.8655 149.844 30.9134 150.169 31.7264C150.495 32.4491 150.928 32.8827 151.488 32.9731C152.048 33.0815 152.645 32.9369 153.295 32.5575C153.891 32.1781 154.343 31.7445 154.65 31.2567C154.957 30.7689 155.21 30.3172 155.373 29.9197C155.553 29.5042 155.716 29.2332 155.879 29.0887C155.951 29.0525 156.023 29.0706 156.077 29.1428C156.132 29.2151 156.186 29.3235 156.222 29.45C156.258 29.5765 156.294 29.7029 156.312 29.8113C156.33 29.8836 156.348 29.9378 156.366 29.9739C156.565 30.6244 156.89 31.1483 157.342 31.5819C158.029 32.1781 158.824 32.3407 159.745 32.1058C160.576 31.9071 161.299 31.5819 161.913 31.0941C162.527 30.6063 163.105 30.0462 163.629 29.3958C163.991 28.9802 164.388 28.4563 164.84 27.8059C164.93 27.6794 165.021 27.553 165.093 27.4446C165.382 27.011 165.563 26.6315 165.653 26.3244C165.436 26.3425 165.273 26.2883 165.129 26.2521Z" fill="#4A563F"/>
<path d="M176.294 26.0399C176.275 25.9677 176.239 25.9315 176.167 25.9496C176.095 25.9677 176.023 26.0219 175.932 26.1122C175.842 26.2206 175.733 26.3832 175.589 26.6C175.481 26.7626 175.336 26.9613 175.173 27.2143C174.722 27.8647 174.162 28.5512 173.511 29.2739C172.861 30.0147 172.21 30.647 171.596 31.189C171.235 31.4962 170.819 31.7672 170.331 32.0562C169.844 32.3272 169.446 32.3995 169.121 32.2911C168.994 32.2188 168.904 32.1285 168.832 31.9659C168.778 31.8214 168.742 31.6588 168.723 31.4781C168.742 31.0987 168.778 30.6832 168.868 30.2495C169.013 29.5449 169.049 28.9126 168.94 28.3344C168.76 27.7202 168.362 27.2866 167.766 27.0156C167.17 26.7445 166.519 26.5639 165.851 26.4374C165.761 26.4193 165.652 26.4013 165.562 26.3651C165.399 26.329 165.237 26.2929 165.092 26.2387C164.893 26.1845 164.713 26.1303 164.55 26.0761C164.297 25.9677 164.08 25.8412 163.918 25.6967C164.243 25.0101 164.405 24.4681 164.387 24.0887C164.351 23.7996 164.243 23.619 164.08 23.5648C163.9 23.5106 163.701 23.5286 163.466 23.637C163.231 23.7454 163.032 23.8719 162.888 24.0345C162.436 24.4862 162.274 25.0282 162.382 25.6425C162.49 26.058 162.743 26.4013 163.159 26.6903C163.556 26.9794 163.972 27.1782 164.351 27.2866C164.351 27.2866 164.351 27.2866 164.369 27.2866C164.586 27.3588 164.821 27.4311 165.038 27.4853C165.128 27.5034 165.237 27.5395 165.327 27.5576C165.616 27.6298 165.869 27.684 166.086 27.7563C166.303 27.8286 166.483 27.937 166.592 28.0634C166.7 28.1899 166.772 28.3886 166.772 28.6235C166.772 28.9487 166.736 29.3281 166.682 29.7437C166.61 30.1953 166.555 30.6651 166.555 31.1348C166.555 31.8394 166.754 32.4356 167.17 32.9415C167.585 33.4474 168.145 33.7003 168.868 33.7003C169.537 33.6823 170.295 33.339 171.181 32.6886C172.084 31.984 172.951 31.1348 173.764 30.1411C174.595 29.1294 175.264 28.1538 175.806 27.2323C176.185 26.5458 176.33 26.1664 176.294 26.0399Z" fill="#4A563F"/>
<path d="M186.991 26.025C186.846 26.1153 186.702 26.296 186.557 26.5309C186.431 26.7296 186.214 27.0187 185.907 27.38C185.636 27.7052 185.274 28.0846 184.841 28.5182C184.769 28.5905 184.696 28.6628 184.624 28.735C184.082 29.259 183.504 29.6745 182.89 30.0358C182.275 30.3972 181.697 30.5237 181.173 30.4333C180.848 30.343 180.595 30.1262 180.433 29.801C180.27 29.4758 180.143 29.1506 180.089 28.8434C180.035 28.6086 179.963 28.3556 179.872 28.1027C179.782 27.8497 179.638 27.651 179.439 27.5245C179.258 27.3981 179.005 27.38 178.698 27.5065C178.228 27.7955 177.704 28.3195 177.108 29.0783C176.657 29.6564 176.223 30.1442 175.789 30.5598C175.356 30.9753 174.958 31.1199 174.597 31.0115C174.452 30.9211 174.398 30.7766 174.398 30.5778C174.416 30.3791 174.452 30.1804 174.543 29.9636C174.633 29.7468 174.705 29.6022 174.778 29.4938C175.121 28.9518 175.663 28.3195 176.404 27.5968C177.144 26.8741 177.831 26.4405 178.445 26.3502C178.644 26.3502 178.861 26.3682 179.059 26.4224H179.078C179.204 26.4586 179.276 26.4405 179.312 26.3863C179.349 26.3321 179.33 26.2598 179.312 26.1695C179.276 26.0792 179.24 26.0069 179.186 25.9346C178.915 25.501 178.517 25.1939 177.993 25.0132C177.47 24.8326 176.982 24.7784 176.476 24.8326C175.428 25.0132 174.525 25.5191 173.748 26.3502C172.971 27.1813 172.375 28.0665 171.995 29.006C171.778 29.548 171.634 30.1262 171.616 30.7766C171.58 31.4089 171.76 31.969 172.14 32.4568C172.646 32.9808 173.26 33.1434 173.983 32.9627C174.687 32.782 175.302 32.4749 175.789 32.0594C176.06 31.8426 176.277 31.6257 176.458 31.4089C176.638 31.1921 176.837 30.9753 177.018 30.7224C177.09 30.6321 177.162 30.5236 177.235 30.4152C177.397 30.1984 177.542 30.09 177.614 30.1262C177.704 30.1623 177.795 30.2707 177.885 30.4514C177.939 30.5598 178.012 30.6682 178.084 30.8127C178.879 31.969 179.963 32.4026 181.318 32.1135C182.149 31.9329 182.872 31.5896 183.504 31.1018C184.064 30.6682 184.588 30.1623 185.076 29.5842C185.13 29.53 185.184 29.4758 185.22 29.4035C185.636 28.9157 186.015 28.4098 186.377 27.8859C186.738 27.38 186.991 26.9464 187.135 26.6212C187.135 26.3682 187.135 26.1334 187.135 25.9166C187.081 25.9888 187.045 26.0069 186.991 26.025Z" fill="#4A563F"/>
<path d="M196.839 26.0372C196.821 25.9649 196.785 25.9288 196.712 25.9469C196.64 25.9649 196.568 26.0191 196.478 26.1095C196.387 26.1998 196.279 26.3624 196.134 26.5792C196.026 26.7418 195.881 26.9406 195.719 27.1935C195.177 27.9704 194.508 28.7834 193.731 29.6325C192.955 30.4998 192.16 31.1863 191.383 31.7283C190.841 32.1077 190.263 32.3787 189.648 32.5233C189.034 32.6678 188.474 32.469 187.968 31.927C187.643 31.4934 187.426 30.825 187.3 29.9397C187.173 29.0363 187.119 28.1149 187.101 27.1574C187.101 26.9948 187.101 26.8322 187.101 26.6696C187.101 26.4166 187.101 26.1817 187.101 25.9649C187.101 25.5494 187.119 25.1881 187.119 24.8809C187.318 24.4834 187.516 24.0498 187.733 23.6343C188.329 22.4419 188.908 21.0688 189.468 19.5692C190.028 18.0516 190.317 16.6424 190.353 15.3054C190.353 14.6731 190.208 14.113 189.901 13.6252C189.594 13.1374 189.088 12.9386 188.384 13.029C187.571 13.2277 186.92 13.7697 186.45 14.655C185.981 15.5403 185.619 16.6062 185.366 17.8167C185.132 19.0272 184.951 20.2196 184.861 21.3579C184.77 22.4961 184.716 23.3994 184.698 24.086C184.662 24.9893 184.644 25.8927 184.68 26.796C184.698 27.3561 184.734 27.9343 184.824 28.5305C184.879 28.8918 184.951 29.2531 185.023 29.6325C185.041 29.7048 185.059 29.7771 185.077 29.8493C185.312 30.9153 185.71 31.8548 186.27 32.6317C186.721 33.2459 187.318 33.6615 188.076 33.8602C189.124 34.0409 190.208 33.7518 191.292 32.9749C192.394 32.1981 193.388 31.2586 194.291 30.1384C195.195 29.0183 195.881 28.0426 196.351 27.2116C196.731 26.5431 196.893 26.1637 196.839 26.0372ZM187.625 17.9974C187.679 17.5638 187.751 17.0399 187.86 16.4256C187.968 15.8113 188.076 15.3054 188.221 14.8899C188.257 14.7815 188.329 14.6731 188.42 14.5285C188.51 14.4021 188.618 14.2937 188.745 14.2214C188.871 14.1491 188.998 14.1672 189.142 14.2395C189.359 14.4563 189.45 14.8718 189.413 15.5042C189.377 16.1365 189.269 16.7869 189.124 17.4554C188.98 18.1239 188.853 18.6117 188.745 18.9008C188.564 19.5512 188.347 20.2558 188.076 21.0327C187.805 21.8095 187.534 22.4961 187.245 23.1104L187.209 23.1284C187.263 21.4301 187.408 19.7138 187.625 17.9974Z" fill="#4A563F"/>
<path d="M85.0739 26.4143C83.8995 22.8009 85.8688 18.9165 89.4822 17.7422C90.6566 21.3556 88.6873 25.24 85.0739 26.4143Z" fill="#84A84B"/>
</svg>
