<svg width="20" height="20" viewBox="0 0 20 20" fill="none" xmlns="http://www.w3.org/2000/svg">
<path fill-rule="evenodd" clip-rule="evenodd" d="M3.25 1.9H1.45C1.20147 1.9 1 1.69853 1 1.45V1.45C1 1.20147 1.20147 1 1.45 1H4.15V3.475H17.5723C18.2663 3.475 18.7493 4.16456 18.5121 4.81674L15.9727 11.8H4.15V14.95H15.4C15.6485 14.95 15.85 15.1515 15.85 15.4V15.4C15.85 15.6485 15.6485 15.85 15.4 15.85H3.25V1.9ZM4.15 10.9H15.3423L17.7151 4.375H4.15V10.9ZM4.6 18.1C4.6 17.6029 5.00294 17.2 5.5 17.2V17.2C5.99706 17.2 6.4 17.6029 6.4 18.1V18.1C6.4 18.5971 5.99706 19 5.5 19V19C5.00294 19 4.6 18.5971 4.6 18.1V18.1ZM13.6 18.1C13.6 17.6029 13.1971 17.2 12.7 17.2V17.2C12.2029 17.2 11.8 17.6029 11.8 18.1V18.1C11.8 18.5971 12.2029 19 12.7 19V19C13.1971 19 13.6 18.5971 13.6 18.1V18.1Z" fill="#46494C"/>
</svg>
